<svg xmlns="http://www.w3.org/2000/svg" viewBox="0 0 99.24 99.24"><defs><style>.cls-1{fill:#456990;}.cls-2{fill:#fff;}</style></defs><title>Asset 3</title><g id="Layer_2" data-name="Layer 2"><g id="blue_circle" data-name="blue circle"><path class="cls-1" d="M49.62,98.74A49.12,49.12,0,1,1,98.74,49.62,49.18,49.18,0,0,1,49.62,98.74Z"/><path class="cls-1" d="M49.62,1A48.62,48.62,0,1,1,1,49.62,48.68,48.68,0,0,1,49.62,1m0-1A49.62,49.62,0,1,0,99.24,49.62,49.62,49.62,0,0,0,49.62,0Z"/></g><g id="cocktail"><path class="cls-2" d="M51.37,55.2,70.61,33.46H60.32L66,26l-2.61-2-7.17,9.43H28.85L48.09,55.2V70.88l-8,9H59.35l-8-9Zm6.47-18.46h5.5l-3.12,3.53H55.15ZM39.25,40.26l-3.12-3.53H53.72L51,40.26Z"/></g></g></svg>