<svg xmlns="http://www.w3.org/2000/svg" viewBox="0 0 99.24 99.24"><defs><style>.cls-1{fill:#456990;}.cls-2{fill:#fff;}</style></defs><title>Asset 1</title><g id="Layer_2" data-name="Layer 2"><g id="Layer_1-2" data-name="Layer 1"><path class="cls-1" d="M49.62,98.74A49.12,49.12,0,1,1,98.74,49.62,49.18,49.18,0,0,1,49.62,98.74Z"/><path class="cls-1" d="M49.62,1A48.62,48.62,0,1,1,1,49.62,48.68,48.68,0,0,1,49.62,1m0-1A49.62,49.62,0,1,0,99.24,49.62,49.62,49.62,0,0,0,49.62,0Z"/></g><g id="basket"><path class="cls-2" d="M73.21,44.64h-.53c2.74-6,4-12.41.83-14.23-1.21-.7-3.4-.87-7,2.25a35.31,35.31,0,0,0-6.27,7.58,6.24,6.24,0,0,0-2-1,7.91,7.91,0,0,0-.4-2.39l3.47-7.15a1.07,1.07,0,0,0-1-1.54h-3a1.07,1.07,0,0,0-1,.61l-1.82,3.74a7.75,7.75,0,0,0-7.83-.69,6.36,6.36,0,0,0-7.79-1.91V26.26a1.07,1.07,0,0,0-1.07-1.07H33.31a1.07,1.07,0,0,0-1.07,1.07v7.35a7.34,7.34,0,0,1-2.32,5.9,8.14,8.14,0,0,0-2.52,5.12H24.88a2.15,2.15,0,0,0-2.15,2.15v3.65a2.15,2.15,0,0,0,2.15,2.15h.53v16.1a5.94,5.94,0,0,0,5.93,5.93H66.74a5.94,5.94,0,0,0,5.93-5.93V52.58h.54a2.15,2.15,0,0,0,2.15-2.15V46.78A2.15,2.15,0,0,0,73.21,44.64ZM61.06,43.05l.35-.6h0a34.57,34.57,0,0,1,6.52-8.18c2.35-2,3.89-2.36,4.5-2,1.3.75,1.24,5.43-2.13,12.37H60.19C60.47,44.11,60.76,43.58,61.06,43.05Zm-1.92-1h0c-.48.84-.94,1.69-1.36,2.54H54.06l2-4.17a1.07,1.07,0,0,0,.9.74A4.15,4.15,0,0,1,59.13,42.09ZM58,30.32h.62l-7.3,15a4,4,0,0,0-.48-.29ZM57,56.75l4.34,4.34L57,65.42,52.7,61.09Zm-1.13-4.17h2.26L57,53.71Zm14.62,5.94v5.14l-.11.1-1.66,1.66-4.34-4.34.82-.82a1.07,1.07,0,0,0-1.52-1.52l-.82.82-4.34-4.34,2.65-2.65h3.39Zm-2.9-5.94h2.9v2.9Zm-16.45,7L50,58.42a1.07,1.07,0,0,0-1.52,1.52l1.15,1.15-4.34,4.34L41,61.09l3.62-3.62A1.07,1.07,0,0,0,43.08,56l-3.62,3.62-4.34-4.34,2.65-2.65H52.87l2.65,2.65ZM32.08,55.23l-4.34,4.34-.19-.19v-6.8h1.88Zm1.52,1.52,4.34,4.34L33.6,65.43l-4.34-4.34Zm-1.13-4.17h2.27L33.6,53.72Zm14.75-4A1.83,1.83,0,1,1,49,50.43,1.83,1.83,0,0,1,47.22,48.61ZM38.93,32.45a4.2,4.2,0,0,1,6.48,1.33,1.07,1.07,0,0,0,1.61.38,5.47,5.47,0,0,1,6.57.32L48.67,44.64h-4.9a8.14,8.14,0,0,0-2.52-5.12,7.34,7.34,0,0,1-2.32-5.9V32.45Zm-4.55-5.11h2.4v.78h-2.4ZM31.51,41a9.42,9.42,0,0,0,2.87-7.34V30.27h2.4v3.34A9.42,9.42,0,0,0,39.65,41a6.1,6.1,0,0,1,2,3.68H29.55A6.1,6.1,0,0,1,31.51,41Zm-6.64,9.48V46.78H45.51a4,4,0,0,0,0,3.65H24.88Zm2.68,18.24V62.8l.19-.19,4.34,4.34-3.86,3.86A3.76,3.76,0,0,1,27.56,68.68Zm3.78,3.78a3.76,3.76,0,0,1-1.44-.29l3.71-3.71,4,4H31.34Zm9.3,0-5.51-5.51,4.34-4.34,4.34,4.34-.72.72a1.07,1.07,0,1,0,1.52,1.52l.72-.72,4,4H40.63Zm6.2-5.51,4.34-4.34,4.34,4.34-4.34,4.34ZM53,72.46l4-4,4,4Zm5.52-5.52,4.34-4.34,4.34,4.34-4.34,4.34Zm8.19,5.52h-2l4-4L70.29,70A3.79,3.79,0,0,1,66.74,72.46Zm3.78-5.26-.26-.26.26-.26Zm2.68-16.77H52.57a4,4,0,0,0,.21-3.16l.24-.49H73.21v3.65Z"/><path class="cls-2" d="M71.79,36.37a1.07,1.07,0,0,0-1.32-.76l-2,.54A1.07,1.07,0,1,0,69,38.23l2-.54A1.07,1.07,0,0,0,71.79,36.37Z"/><path class="cls-2" d="M68.57,41.95a1.07,1.07,0,0,0-1.32-.76l-2,.54a1.07,1.07,0,1,0,.56,2.08l2-.54A1.07,1.07,0,0,0,68.57,41.95Z"/><path class="cls-2" d="M46.87,53.68a1.07,1.07,0,0,0-1.52,0h0a1.07,1.07,0,1,0,1.52,1.52h0A1.07,1.07,0,0,0,46.87,53.68Z"/><path class="cls-2" d="M42.44,69.83a1.07,1.07,0,0,0-1.52,0h0a1.07,1.07,0,1,0,1.52,1.52h0A1.07,1.07,0,0,0,42.44,69.83Z"/><path class="cls-2" d="M67.24,56.74a1.07,1.07,0,0,0-1.52,0h0a1.07,1.07,0,1,0,1.52,1.52h0A1.07,1.07,0,0,0,67.24,56.74Z"/></g></g></svg>