<svg xmlns="http://www.w3.org/2000/svg" viewBox="0 0 99.24 99.24"><defs><style>.cls-1{fill:#456990;}.cls-2{fill:#fff;}</style></defs><title>Asset 1</title><g id="Layer_2" data-name="Layer 2"><g id="Layer_1-2" data-name="Layer 1"><path class="cls-1" d="M49.62,98.74A49.12,49.12,0,1,1,98.74,49.62,49.18,49.18,0,0,1,49.62,98.74Z"/><path class="cls-1" d="M49.62,1A48.62,48.62,0,1,1,1,49.62,48.68,48.68,0,0,1,49.62,1m0-1A49.62,49.62,0,1,0,99.24,49.62,49.62,49.62,0,0,0,49.62,0Z"/><path class="cls-2" d="M43.72,24.79A9.74,9.74,0,0,0,35,23.58a12.47,12.47,0,0,0-2.69,1.14c-4,2.23-8.45,6.67-9.63,11.16s-.5,9,.18,13.39A12.78,12.78,0,0,1,23.65,47c2.23-4.69,7.15-6.92,10.85-10.23V34.9a1.17,1.17,0,1,1,2.35,0v2a74.37,74.37,0,0,1,5.22,5.59c.91,1,1.81,2.08,2.71,3.13.35.41.71.81,1,1.25.25-3.16.78-6.24,1.28-9.56C47.78,32.82,47.31,27.56,43.72,24.79Z"/><path class="cls-2" d="M29.29,62.49a9.39,9.39,0,0,1-4.62-3.56c1,4,2.23,8,3.45,11.72,2.29,7,10,7.11,15,4.49,4.67-2.45,4-10.53,3.2-17a14.44,14.44,0,0,0-1.44,2.3,1.21,1.21,0,0,1-1.45.83,1.18,1.18,0,0,1-.83-1.45c.85-2.07,2.67-3.65,2.85-6a7.46,7.46,0,0,0-1.14-5,53.63,53.63,0,0,0-4.49-5.26c-1.39-1.52-2.73-3.13-4.22-4.55-3.21,2.66-7.34,4.69-9.45,8.37a9.63,9.63,0,0,0-1.07,7.36c.73,2.24,2.49,4.8,4.84,5.56C31.36,60.68,30.74,63,29.29,62.49Z"/><path class="cls-2" d="M78.7,49.27c.68-4.43,1.32-9,.18-13.39s-5.68-8.93-9.64-11.16a12.47,12.47,0,0,0-2.69-1.14,9.78,9.78,0,0,0-8.74,1.21c-3.58,2.78-4,8-3.38,12.51.49,3.31,1,6.38,1.28,9.56.34-.42.69-.84,1-1.25.9-1,1.8-2.1,2.71-3.13a74.34,74.34,0,0,1,5.22-5.59v-2a1.17,1.17,0,1,1,2.35,0v1.89C70.73,40.1,75.64,42.34,77.87,47A11.74,11.74,0,0,1,78.7,49.27Z"/><path class="cls-2" d="M58.11,61.23a1.21,1.21,0,0,1-1.45-.83,12.49,12.49,0,0,0-1.44-2.3c-.77,6.51-1.47,14.57,3.2,17,5,2.62,12.68,2.51,15-4.49,1.22-3.72,2.45-7.71,3.45-11.72a9.39,9.39,0,0,1-4.62,3.56c-1.45.47-2.06-1.81-.62-2.28,2.35-.75,4.1-3.31,4.84-5.56a9.65,9.65,0,0,0-1.07-7.36c-2.11-3.68-6.25-5.71-9.45-8.37-1.48,1.43-2.83,3-4.22,4.55a55,55,0,0,0-4.49,5.26,7.51,7.51,0,0,0-1.14,5c.18,2.35,2,3.92,2.85,6A1.2,1.2,0,0,1,58.11,61.23Z"/></g></g></svg>