<svg xmlns="http://www.w3.org/2000/svg" viewBox="0 0 99.24 99.24"><defs><style>.cls-1{fill:#456990;}.cls-2{fill:#fff;}</style></defs><title>Asset 2</title><g id="Layer_2" data-name="Layer 2"><g id="blue_circle" data-name="blue circle"><path class="cls-1" d="M49.62,98.74A49.12,49.12,0,1,1,98.74,49.62,49.18,49.18,0,0,1,49.62,98.74Z"/><path class="cls-1" d="M49.62,1A48.62,48.62,0,1,1,1,49.62,48.68,48.68,0,0,1,49.62,1m0-1A49.62,49.62,0,1,0,99.24,49.62,49.62,49.62,0,0,0,49.62,0Z"/></g><g id="beer"><path class="cls-2" d="M65.79,44.43l-1-2.1h0l1,2.1ZM36.83,46a1.32,1.32,0,0,0-1.75.65l-6.45,14A1.32,1.32,0,1,0,31,61.81l6.45-14A1.32,1.32,0,0,0,36.83,46Zm39.7,14.73-.25.12.07.15a4.63,4.63,0,0,1-2.27,6.14L62.78,72.39a4.59,4.59,0,0,1-1.93.43h0a4.64,4.64,0,0,1-4.21-2.69l-6.92-15L42.84,70a4.64,4.64,0,0,1-4.21,2.69,4.59,4.59,0,0,1-1.93-.43L25.39,67.1A4.63,4.63,0,0,1,23.12,61l.07-.15-.25-.12a4.63,4.63,0,0,1-2.27-6.14L26,43a4.63,4.63,0,0,1,6.14-2.27l.25.12.41-.9,1.06-2.29a4.76,4.76,0,0,1,6.31-2.33l.07,0A6,6,0,0,1,49,38.76a6,6,0,0,1,.89.24,6,6,0,0,1,.64-.15,6,6,0,0,1,8.74-3.41l.07,0a4.76,4.76,0,0,1,6.31,2.33L66.67,40h0l.41.9.25-.12a4.63,4.63,0,0,1,6.14,2.27L78.8,54.63A4.63,4.63,0,0,1,76.54,60.77ZM55.35,41.66a1.32,1.32,0,0,1-1.84.33,3.33,3.33,0,0,0-.34-.21,6.07,6.07,0,0,1,.74,2.66l9.81-4.52-.5-1.09A2.11,2.11,0,0,0,60,38a1.32,1.32,0,0,1-1.67,0,3.38,3.38,0,0,0-5.05,1,6,6,0,0,1,1.72.82A1.32,1.32,0,0,1,55.35,41.66ZM24.29,58.41l7-15.16L31,43.13a2,2,0,0,0-2.63,1L23.07,55.66a2,2,0,0,0,1,2.63Zm25.27-9.29-1.32-.61-.09,0,0-.1L47,47.93l-.73-.34L34.65,42.25h0l-.48,1.05v1.16h0V43.3l-.48,1.05-7,15.16-.31.66-.8,1.74-.07.15a2,2,0,0,0,1,2.63L37.8,69.91a2,2,0,0,0,.83.18,2,2,0,0,0,1.8-1.15l7.83-17L49,50.36l.43-.94Zm1.53-3.38A3.37,3.37,0,0,0,49.8,41.9a3.41,3.41,0,0,0-.5-.28,3.35,3.35,0,0,0-.94-.27,3.4,3.4,0,0,0-1.93.3,3.34,3.34,0,0,0-.47.27,1.32,1.32,0,1,1-1.51-2.17,6,6,0,0,1,1.72-.82,3.38,3.38,0,0,0-5.05-1,1.32,1.32,0,0,1-1.67,0,2.09,2.09,0,0,0-.39-.23,2.11,2.11,0,0,0-2.8,1l-.5,1.09,9.82,4.52,1.32.61,1.44.66,1.5.69ZM74,62.15,73.88,62h0l-.29-.64-7.8-16.93-1-2.1h0L53.12,47.72l-.6,1.3-1.34,2.92L59,69a2,2,0,0,0,1.8,1.15h0a2,2,0,0,0,.83-.18L73,64.78a2,2,0,0,0,1-2.63Zm2.45-6.41L71.08,44.18a2,2,0,0,0-2.63-1l-.25.12,7,15.16.25-.12A2,2,0,0,0,76.4,55.74Zm-16.22-7a1.32,1.32,0,0,0-2.4,1.11l6.45,14a1.32,1.32,0,0,0,2.4-1.11Zm4.21-1.94A1.32,1.32,0,0,0,62,47.88l6.45,14a1.32,1.32,0,0,0,2.4-1.11ZM56,50.65a1.32,1.32,0,0,0-2.4,1.11l6.45,14a1.32,1.32,0,0,0,2.4-1.11ZM41,48a1.32,1.32,0,0,0-1.75.65l-6.45,14a1.32,1.32,0,1,0,2.4,1.11l6.45-14A1.32,1.32,0,0,0,41,48Zm4.21,1.94a1.32,1.32,0,0,0-1.75.65L37,64.59a1.32,1.32,0,1,0,2.4,1.11l6.45-14A1.32,1.32,0,0,0,45.26,49.93Zm4.52-16.1a1.32,1.32,0,0,0,1.32-1.32V23.83a1.32,1.32,0,0,0-2.64,0v8.68A1.32,1.32,0,0,0,49.78,33.83Zm5-1.25A1.32,1.32,0,0,0,56.57,32L59,27a1.32,1.32,0,1,0-2.39-1.14l-2.39,5A1.32,1.32,0,0,0,54.81,32.58ZM42.71,32a1.32,1.32,0,1,0,2.39-1.14l-2.39-5A1.32,1.32,0,0,0,40.33,27Z"/></g></g></svg>