<svg xmlns="http://www.w3.org/2000/svg" viewBox="0 0 99.24 99.24"><defs><style>.cls-1{fill:#456990;}.cls-2{fill:#fff;}</style></defs><title>Asset 6</title><g id="Layer_2" data-name="Layer 2"><g id="blue_circle" data-name="blue circle"><path class="cls-1" d="M49.62,98.74A49.12,49.12,0,1,1,98.74,49.62,49.18,49.18,0,0,1,49.62,98.74Z"/><path class="cls-1" d="M49.62,1A48.62,48.62,0,1,1,1,49.62,48.68,48.68,0,0,1,49.62,1m0-1A49.62,49.62,0,1,0,99.24,49.62,49.62,49.62,0,0,0,49.62,0Z"/></g><g id="discoball"><path class="cls-2" d="M70.44,51.24h0a19.55,19.55,0,0,0-4.67-12.68,1,1,0,0,0-1.52,1.3,17.49,17.49,0,0,1,2.23,3.32,16.92,16.92,0,0,0-1.92-1.47,20,20,0,0,0-2.66-1.48,20,20,0,0,0-1.48-2.66A16.91,16.91,0,0,0,59,35.65a17.44,17.44,0,0,1,3,2,1,1,0,1,0,1.27-1.55,19.55,19.55,0,0,0-7.38-3.75,5,5,0,0,0-4-4.55V18.6a1,1,0,0,0-2,0v9.19a5,5,0,0,0-4,4.54,19.55,19.55,0,0,0,5,38.45h0A19.57,19.57,0,0,0,70.44,51.24Zm-7-7.86A11.64,11.64,0,0,1,67.7,48a18.48,18.48,0,0,0-3.44-1.24l-.43-.11A26.11,26.11,0,0,0,63,43.08ZM62,48.3a27.27,27.27,0,0,1,0,5.87,47,47,0,0,1-5.29.76c0-.92.08-1.85.09-2.79a1,1,0,0,0-1-1h0a1,1,0,0,0-1,1q0,1.51-.1,3c-1.25.07-2.53.11-3.84.11s-2.59,0-3.84-.11c-.07-1.25-.11-2.53-.11-3.84s0-2.59.11-3.84c1.25-.07,2.53-.11,3.84-.11s2.59,0,3.84.11q0,.72.07,1.45a1,1,0,1,0,2-.07c0-.41,0-.83-.06-1.23A47,47,0,0,1,62,48.3Zm-.32,8a22.69,22.69,0,0,1-1.33,4.45,22.68,22.68,0,0,1-4.45,1.33c.29-1.57.52-3.29.68-5.11A51.44,51.44,0,0,0,61.72,56.27Zm0-10.08a51.46,51.46,0,0,0-5.11-.68c-.15-1.82-.38-3.54-.68-5.11a22.69,22.69,0,0,1,4.46,1.33A22.7,22.7,0,0,1,61.72,46.2Zm-3-7.52.29.46a26.1,26.1,0,0,0-3.58-.83c-.11-.43-.22-.85-.34-1.25a16.75,16.75,0,0,0-1-2.62A11.64,11.64,0,0,1,58.76,38.67Zm-7.86-9a3,3,0,0,1,2.89,2.21l-.23,0-.32,0-.24,0-.58-.05h-.13l-.66,0h-1.5q-.7,0-1.38.1h-.07L48,31.9h0A3,3,0,0,1,50.89,29.69ZM53.33,38q-1.2-.1-2.44-.1t-2.44.1c.94-3.35,2-4.3,2.41-4.34h.06c.41,0,1.37.91,2.29,3.93Zm-2.44,1.9a27.18,27.18,0,0,1,2.94.16,47.47,47.47,0,0,1,.76,5.29c-1.2-.06-2.44-.1-3.69-.1s-2.49,0-3.69.1A47,47,0,0,1,48,40.09,27.18,27.18,0,0,1,50.89,39.94Zm-3.23-5.51a18.49,18.49,0,0,0-1.24,3.44l-.11.43a26.08,26.08,0,0,0-3.58.83l.29-.46A11.64,11.64,0,0,1,47.66,34.43ZM45,54.93a47,47,0,0,1-5.29-.76,27.26,27.26,0,0,1,0-5.87A47,47,0,0,1,45,47.54c-.06,1.2-.1,2.44-.1,3.69S45,53.72,45,54.93Zm.14,2a51.41,51.41,0,0,0,.68,5.11,22.69,22.69,0,0,1-4.45-1.33,22.68,22.68,0,0,1-1.33-4.45A51.46,51.46,0,0,0,45.18,57Zm0-11.43a51.45,51.45,0,0,0-5.11.68,22.7,22.7,0,0,1,1.33-4.45,22.69,22.69,0,0,1,4.45-1.33A51.45,51.45,0,0,0,45.18,45.52Zm-2.35-9.86a16.89,16.89,0,0,0-1.47,1.91,20,20,0,0,0-1.48,2.66,20,20,0,0,0-2.66,1.48,16.89,16.89,0,0,0-1.91,1.47A17.67,17.67,0,0,1,42.83,35.66Zm-4.5,7.71.46-.29A26.12,26.12,0,0,0,38,46.66l-.43.11A18.48,18.48,0,0,0,34.08,48,11.64,11.64,0,0,1,38.33,43.37Zm-5,7.86h0c0-.43.92-1.47,4.34-2.44q-.1,1.2-.1,2.44t.1,2.44C34.27,52.71,33.35,51.66,33.35,51.24Zm4.17,4.47.43.11a26.09,26.09,0,0,0,.83,3.58l-.46-.29a11.64,11.64,0,0,1-4.25-4.63A18.48,18.48,0,0,0,37.52,55.7Zm-2.21,3.6a16.91,16.91,0,0,0,1.91,1.47,20,20,0,0,0,2.66,1.48,20,20,0,0,0,1.48,2.66,16.91,16.91,0,0,0,1.47,1.91A17.67,17.67,0,0,1,35.32,59.3ZM43,63.8l-.29-.46a26.08,26.08,0,0,0,3.58.83l.11.43A18.48,18.48,0,0,0,47.66,68,11.64,11.64,0,0,1,43,63.8Zm7.86,5h0c-.43,0-1.47-.92-2.44-4.34q1.2.1,2.44.1t2.44-.1C52.36,67.87,51.32,68.78,50.89,68.78Zm0-6.24A27.18,27.18,0,0,1,48,62.38a47,47,0,0,1-.76-5.29c1.2.06,2.44.1,3.69.1s2.49,0,3.69-.1a47.17,47.17,0,0,1-.76,5.29A27.16,27.16,0,0,1,50.89,62.53ZM54.12,68a17.84,17.84,0,0,0,1.16-3.14c.07-.24.13-.48.19-.73A26.1,26.1,0,0,0,59,63.34l-.29.46A11.64,11.64,0,0,1,54.12,68ZM59,66.81a16.91,16.91,0,0,0,1.47-1.91,20,20,0,0,0,1.48-2.66,20.06,20.06,0,0,0,2.66-1.48,16.91,16.91,0,0,0,1.91-1.47A17.67,17.67,0,0,1,59,66.81Zm4.5-7.71-.46.29a26.1,26.1,0,0,0,.83-3.58l.43-.11a18.48,18.48,0,0,0,3.44-1.24A11.64,11.64,0,0,1,63.45,59.1Zm5-7.86c0,.43-.92,1.47-4.34,2.44q.1-1.2.1-2.44t-.1-2.44c3.43,1,4.34,2,4.34,2.44Z"/><path class="cls-2" d="M50.89,72.78a1,1,0,0,0-1,1v6.11a1,1,0,0,0,2,0V73.78A1,1,0,0,0,50.89,72.78Z"/><path class="cls-2" d="M34.24,66.47l-4.32,4.32a1,1,0,0,0,1.42,1.42l4.32-4.32a1,1,0,1,0-1.42-1.42Z"/><path class="cls-2" d="M66.83,36.29a1,1,0,0,0,.71-.29l4.32-4.32a1,1,0,0,0-1.42-1.42l-4.32,4.32a1,1,0,0,0,.71,1.71Z"/><path class="cls-2" d="M28.35,50.23H22.24a1,1,0,1,0,0,2h6.11a1,1,0,0,0,0-2Z"/><path class="cls-2" d="M79.55,50.23H73.44a1,1,0,0,0,0,2h6.11a1,1,0,1,0,0-2Z"/><path class="cls-2" d="M34.24,36a1,1,0,0,0,1.42-1.42l-4.32-4.32a1,1,0,0,0-1.42,1.42Z"/><path class="cls-2" d="M67.54,66.47a1,1,0,0,0-1.42,1.42l4.32,4.32a1,1,0,0,0,1.42-1.42Z"/></g></g></svg>