<?xml version="1.0" encoding="iso-8859-1"?>
<!-- Generator: Adobe Illustrator 19.0.0, SVG Export Plug-In . SVG Version: 6.00 Build 0)  -->
<svg xmlns="http://www.w3.org/2000/svg" xmlns:xlink="http://www.w3.org/1999/xlink" version="1.1" id="Layer_1" x="0px" y="0px" viewBox="0 0 512.001 512.001" style="enable-background:new 0 0 512.001 512.001;" xml:space="preserve" width="512px" height="512px">
<g>
	<g>
		<g>
			<path d="M414.115,272.104c0-0.001,0-0.002,0-0.002c0-37.6-13.427-74.037-37.806-102.599c-2.903-3.403-8.015-3.807-11.415-0.901     c-3.4,2.901-3.805,8.013-0.901,11.415c7.076,8.29,13.117,17.323,18.062,26.888c-4.689-4.186-9.86-8.168-15.5-11.91     c-6.701-4.445-13.898-8.433-21.498-11.952c-3.518-7.598-7.506-14.793-11.95-21.493c-3.738-5.635-7.715-10.801-11.896-15.486     c8.673,4.48,16.905,9.856,24.526,16.084c3.465,2.831,8.565,2.317,11.394-1.146c2.83-3.464,2.315-8.563-1.146-11.393     c-17.537-14.33-37.953-24.642-59.66-30.374c-1.278-18.245-14.702-33.193-32.226-36.769V8.098C264.099,3.625,260.474,0,256,0     c-4.473,0-8.098,3.625-8.098,8.098v74.368c-17.515,3.574-30.934,18.508-32.224,36.74     C147.963,137.079,97.886,198.85,97.886,272.102c0,87.185,70.929,158.114,158.114,158.115c0,0,0,0,0.001,0c0,0,0,0,0.001,0     c87.185,0,158.113-70.928,158.115-158.112C414.115,272.105,414.115,272.105,414.115,272.104z M357.604,208.491     c16.208,10.751,27.875,23.58,34.365,37.478c-7.422-3.699-16.688-7.04-27.801-10.007c-1.146-0.306-2.333-0.597-3.508-0.892     c-1.612-9.976-3.873-19.66-6.754-28.936C355.154,206.905,356.391,207.687,357.604,208.491z M346.125,248.357     c0.845,7.77,1.282,15.704,1.282,23.746c0,8.043-0.437,15.979-1.282,23.75c-12.953,2.688-27.377,4.752-42.768,6.137     c0.393-7.402,0.645-14.945,0.741-22.589c0.059-4.472-3.521-8.144-7.992-8.2c-0.036-0.001-0.07-0.001-0.104-0.001     c-4.424,0-8.039,3.56-8.095,7.995c-0.103,8.143-0.392,16.151-0.838,23.985c-10.094,0.573-20.488,0.876-31.069,0.876     c-10.583,0-20.979-0.303-31.076-0.876c-0.573-10.097-0.876-20.493-0.876-31.077c0-10.583,0.303-20.978,0.876-31.075     c10.097-0.573,20.492-0.876,31.076-0.876c10.582,0,20.976,0.303,31.071,0.876c0.221,3.871,0.407,7.78,0.545,11.733     c0.155,4.47,3.918,7.958,8.374,7.81c4.47-0.156,7.966-3.904,7.81-8.374c-0.117-3.355-0.274-6.676-0.45-9.979     C318.742,243.603,333.169,245.669,346.125,248.357z M343.565,312.86c-2.463,12.716-6.078,24.828-10.776,36.032     c-11.204,4.698-23.315,8.313-36.03,10.775c2.383-12.71,4.219-26.633,5.467-41.327     C316.916,317.095,330.826,315.251,343.565,312.86z M343.565,231.349c-12.737-2.391-26.646-4.234-41.334-5.48     c-1.253-14.715-3.106-28.64-5.482-41.332c12.719,2.463,24.834,6.079,36.04,10.778     C337.487,206.52,341.102,218.632,343.565,231.349z M319.613,170.5c0.804,1.212,1.586,2.448,2.357,3.696     c-9.274-2.88-18.955-5.141-28.927-6.752c-0.878-3.505-1.801-6.879-2.771-10.094c-2.489-8.245-5.212-15.32-8.161-21.226     C296.018,142.611,308.857,154.282,319.613,170.5z M256,97.844c11.165,0,20.591,7.586,23.395,17.876     c-0.612-0.091-1.227-0.155-1.84-0.239c-0.864-0.119-1.729-0.231-2.595-0.336c-0.637-0.076-1.273-0.159-1.911-0.228     c-1.572-0.171-3.149-0.312-4.728-0.436c-0.351-0.027-0.701-0.055-1.052-0.08c-1.764-0.127-3.532-0.225-5.303-0.293     c-0.083-0.003-0.165-0.005-0.248-0.008c-1.903-0.069-3.809-0.112-5.718-0.112c0,0,0,0-0.001,0c0,0,0,0-0.001,0     c-1.878,0-3.746,0.045-5.608,0.11c-0.188,0.007-0.375,0.014-0.563,0.021c-3.761,0.145-7.489,0.42-11.179,0.825     c-0.188,0.021-0.375,0.043-0.562,0.064c-1.767,0.2-3.526,0.426-5.274,0.684c-0.069,0.011-0.138,0.017-0.207,0.028     C235.41,105.43,244.836,97.844,256,97.844z M275.718,165.324c-6.492-0.543-13.074-0.821-19.717-0.821     c-6.648,0-13.235,0.279-19.732,0.823c7.624-27.065,15.863-34.781,19.478-35.125c0.174,0,0.349,0,0.523,0     c3.332,0.36,11.1,7.323,18.498,31.83C275.091,163.104,275.404,164.215,275.718,165.324z M256,180.696     c8.043,0,15.979,0.437,23.751,1.282c2.661,12.868,4.727,27.323,6.121,42.76c-9.74-0.516-19.733-0.78-29.872-0.78     c-10.143,0-20.141,0.265-29.885,0.781c1.385-15.388,3.449-29.81,6.136-42.761C240.023,181.133,247.958,180.696,256,180.696z      M229.864,136.137c-3.698,7.422-7.039,16.688-10.006,27.8c-0.306,1.146-0.597,2.331-0.892,3.505     c-9.975,1.611-19.659,3.872-28.935,6.754c0.771-1.248,1.553-2.484,2.357-3.697C203.139,154.293,215.967,142.627,229.864,136.137z      M208.636,301.987c-15.388-1.384-29.809-3.449-42.759-6.136c-0.846-7.77-1.283-15.705-1.283-23.749     c0-8.042,0.437-15.975,1.282-23.746c12.95-2.688,27.372-4.753,42.76-6.138c-0.516,9.744-0.781,19.741-0.781,29.883     C207.855,282.245,208.12,292.243,208.636,301.987z M209.766,318.34c1.245,14.686,3.088,28.593,5.479,41.328     c-12.716-2.463-24.828-6.078-36.032-10.776c-4.699-11.204-8.314-23.316-10.777-36.032     C181.173,315.251,195.08,317.094,209.766,318.34z M209.766,225.87c-14.687,1.245-28.594,3.089-41.33,5.479     c2.463-12.717,6.078-24.829,10.776-36.034c11.204-4.698,23.316-8.313,36.033-10.776     C212.855,197.275,211.011,211.182,209.766,225.87z M190.766,146.092c-4.173,4.678-8.142,9.835-11.872,15.459     c-4.444,6.7-8.432,13.895-11.95,21.494c-7.6,3.519-14.796,7.507-21.497,11.952c-5.625,3.731-10.782,7.701-15.46,11.875     C143.49,180.893,164.789,159.594,190.766,146.092z M154.397,208.491c1.212-0.804,2.449-1.586,3.697-2.357     c-2.881,9.277-5.142,18.96-6.754,28.936c-1.175,0.295-2.361,0.586-3.507,0.892c-11.113,2.967-20.379,6.308-27.801,10.007     C126.522,232.071,138.19,219.242,154.397,208.491z M114.079,272.105L114.079,272.105c0.001-3.474,7.434-11.928,35.144-19.731     c-0.544,6.496-0.823,13.081-0.823,19.729c0,6.649,0.279,13.236,0.823,19.734C121.514,284.033,114.081,275.58,114.079,272.105z      M147.834,308.246c1.146,0.306,2.332,0.597,3.507,0.892c1.611,9.975,3.872,19.658,6.753,28.934     c-1.248-0.771-2.484-1.553-3.696-2.357c-16.206-10.75-27.873-23.576-34.363-37.473     C127.456,301.94,136.722,305.28,147.834,308.246z M129.987,337.337c4.679,4.173,9.835,8.143,15.46,11.874     c6.701,4.445,13.897,8.433,21.497,11.952c3.518,7.599,7.506,14.794,11.95,21.494c3.73,5.624,7.699,10.78,11.872,15.459     C164.789,384.613,143.49,363.314,129.987,337.337z M192.389,373.705c-0.803-1.211-1.585-2.447-2.356-3.694     c9.276,2.882,18.959,5.143,28.934,6.754c0.295,1.174,0.586,2.36,0.892,3.505c2.967,11.112,6.307,20.379,10.006,27.8     C215.967,401.58,203.139,389.914,192.389,373.705z M256,414.025c0,0,0,0-0.001,0c-3.473-0.001-11.925-7.434-19.73-35.143     c6.497,0.544,13.084,0.823,19.732,0.823c6.646,0,13.23-0.279,19.725-0.822C267.893,406.655,259.411,414.024,256,414.025z      M256,363.51c-8.042,0-15.977-0.437-23.749-1.282c-2.687-12.95-4.751-27.37-6.136-42.758c9.744,0.516,19.741,0.781,29.885,0.781     c10.142,0,20.139-0.265,29.882-0.781c-1.387,15.408-3.451,29.843-6.126,42.757C271.982,363.073,264.046,363.51,256,363.51z      M282.123,408.077c3.428-6.874,6.551-15.332,9.353-25.374c0.539-1.93,1.058-3.918,1.565-5.939     c9.973-1.611,19.653-3.872,28.927-6.752c-0.771,1.247-1.552,2.483-2.355,3.694C308.859,389.92,296.026,401.589,282.123,408.077z      M321.234,398.116c4.173-4.678,8.142-9.835,11.873-15.459c4.444-6.7,8.431-13.895,11.95-21.493     c7.6-3.519,14.797-7.508,21.499-11.952c5.624-3.73,10.779-7.7,15.457-11.872C368.51,363.316,347.211,384.614,321.234,398.116z      M357.604,335.716c-1.212,0.804-2.449,1.586-3.698,2.358c2.881-9.277,5.142-18.96,6.753-28.935     c1.176-0.295,2.362-0.586,3.509-0.892c11.112-2.966,20.377-6.306,27.799-10.004C385.477,312.139,373.81,324.966,357.604,335.716z      M397.922,272.105c-0.001,3.475-7.437,11.928-35.145,19.731c0.544-6.498,0.823-13.085,0.823-19.734     c0-6.647-0.279-13.233-0.823-19.729C390.487,260.177,397.922,268.631,397.922,272.105L397.922,272.105z" fill="#FFFFFF"/>
			<path d="M256,446.374c-4.473,0-8.098,3.625-8.098,8.098v49.431c0,4.473,3.625,8.098,8.098,8.098c4.473,0,8.098-3.625,8.098-8.098     v-49.431C264.099,449.999,260.474,446.374,256,446.374z" fill="#FFFFFF"/>
			<path d="M121.323,395.33l-34.956,34.955c-3.161,3.162-3.161,8.289,0,11.451c1.582,1.581,3.653,2.37,5.727,2.37     c2.072,0,4.145-0.789,5.726-2.37l34.955-34.953c3.161-3.164,3.161-8.289,0-11.453     C129.612,392.171,124.485,392.169,121.323,395.33z" fill="#FFFFFF"/>
			<path d="M384.953,151.248c2.071,0,4.146-0.791,5.726-2.372l34.956-34.953c3.161-3.162,3.161-8.289,0-11.451     c-3.164-3.162-8.289-3.162-11.454,0l-34.954,34.953c-3.161,3.162-3.161,8.289,0,11.451     C380.81,150.457,382.88,151.248,384.953,151.248z" fill="#FFFFFF"/>
			<path d="M73.635,264.008l-49.434-0.001c-4.472,0-8.098,3.626-8.098,8.096c0,4.472,3.625,8.098,8.098,8.098l49.434,0.001     c4.472,0,8.096-3.626,8.096-8.098C81.729,267.634,78.105,264.008,73.635,264.008z" fill="#FFFFFF"/>
			<path d="M487.8,264.007h-49.434c-4.472,0-8.096,3.624-8.096,8.096c0,4.473,3.624,8.098,8.096,8.098H487.8     c4.473,0,8.098-3.625,8.098-8.098C495.898,267.631,492.273,264.007,487.8,264.007z" fill="#FFFFFF"/>
			<path d="M121.323,148.876c1.58,1.581,3.654,2.372,5.726,2.372c2.072,0,4.144-0.791,5.726-2.372c3.161-3.162,3.161-8.289,0-11.451     L97.82,102.472c-3.163-3.162-8.288-3.162-11.452,0c-3.161,3.162-3.161,8.289,0,11.451L121.323,148.876z" fill="#FFFFFF"/>
			<path d="M390.679,395.33c-3.162-3.16-8.289-3.16-11.451,0c-3.161,3.164-3.161,8.289,0,11.453l34.954,34.953     c1.582,1.581,3.654,2.37,5.726,2.37c2.073,0,4.146-0.789,5.728-2.37c3.161-3.162,3.161-8.289,0-11.451L390.679,395.33z" fill="#FFFFFF"/>
		</g>
	</g>
</g>
<g>
</g>
<g>
</g>
<g>
</g>
<g>
</g>
<g>
</g>
<g>
</g>
<g>
</g>
<g>
</g>
<g>
</g>
<g>
</g>
<g>
</g>
<g>
</g>
<g>
</g>
<g>
</g>
<g>
</g>
</svg>
