<svg xmlns="http://www.w3.org/2000/svg" viewBox="0 0 99.24 99.24"><defs><style>.cls-1{fill:#456990;}.cls-2{fill:#fff;}</style></defs><title>Asset 4</title><g id="Layer_2" data-name="Layer 2"><g id="blue_circle" data-name="blue circle"><path class="cls-1" d="M49.62,98.74A49.12,49.12,0,1,1,98.74,49.62,49.18,49.18,0,0,1,49.62,98.74Z"/><path class="cls-1" d="M49.62,1A48.62,48.62,0,1,1,1,49.62,48.68,48.68,0,0,1,49.62,1m0-1A49.62,49.62,0,1,0,99.24,49.62,49.62,49.62,0,0,0,49.62,0Z"/></g><g id="hiker"><path class="cls-2" d="M29,36.21l-.24,2.24,5.74,6.82,1-7.36a7,7,0,0,1,.24-1Z"/><path class="cls-2" d="M33.87,49.84l.3-2.22-5.68-6.75-.84,7.88a3.56,3.56,0,0,0,3.16,3.91l3.4.36A6.94,6.94,0,0,1,33.87,49.84Z"/><path class="cls-2" d="M45.68,36.48a2.63,2.63,0,1,0-4.94,1.78l3.19,8.83a2.62,2.62,0,0,0,1.77,1.64L54,51a2.63,2.63,0,1,0,1.39-5.07L48.4,44Z"/><path class="cls-2" d="M54.33,65.18l-1.08-7.45a3.07,3.07,0,0,0-1.33-2.11l-4.38-2.92-1.54-1,0-.17.11-.81-.9-.25a4.38,4.38,0,0,1-3-2.74l-1-2.77L35.9,48l-.29,2.11a8.73,8.73,0,0,0,.12,2.54l1.25,4L38.66,62,36.32,70.9a3.07,3.07,0,1,0,5.93,1.56l2.57-9.76a3.06,3.06,0,0,0,0-1.69l-1.1-3.53L47.38,60l.88,6.1a3.07,3.07,0,0,0,3,2.63,3.11,3.11,0,0,0,.44,0A3.06,3.06,0,0,0,54.33,65.18Z"/><path class="cls-2" d="M74,46a1.75,1.75,0,0,0-2.45.35L65,55.08a1.76,1.76,0,0,0-.29.58L62,65.23l-4.15.59a1.74,1.74,0,0,0-.61.21l-12,6.79a1.75,1.75,0,1,0,1.72,3.05l11.74-6.63,5-.71a1.75,1.75,0,0,0,1.44-1.26L68,56.92l6.38-8.47A1.75,1.75,0,0,0,74,46Z"/><path class="cls-2" d="M29.71,35.29l6.37.68.81.09A3.54,3.54,0,0,0,38.06,36a5.2,5.2,0,0,0-.84,2.18l-1,7.63,4.48-2.54-1.58-4.39a4.36,4.36,0,0,1,.21-3.44l.2-.13A3.56,3.56,0,0,0,37.64,29l-7.18-.77a3.56,3.56,0,0,0-.75,7.07Z"/><circle class="cls-2" cx="45.73" cy="28.25" r="5.1"/></g></g></svg>