<svg xmlns="http://www.w3.org/2000/svg" viewBox="0 0 99.24 99.24"><defs><style>.cls-1{fill:#456990;}.cls-2{fill:#fff;}</style></defs><title>Asset 5</title><g id="Layer_2" data-name="Layer 2"><g id="blue_circle" data-name="blue circle"><path class="cls-1" d="M49.62,98.74A49.12,49.12,0,1,1,98.74,49.62,49.18,49.18,0,0,1,49.62,98.74Z"/><path class="cls-1" d="M49.62,1A48.62,48.62,0,1,1,1,49.62,48.68,48.68,0,0,1,49.62,1m0-1A49.62,49.62,0,1,0,99.24,49.62,49.62,49.62,0,0,0,49.62,0Z"/></g><g id="restaurant"><g id="_Group_" data-name="&lt;Group&gt;"><path id="_Path_" data-name="&lt;Path&gt;" class="cls-2" d="M40.91,55.52l-.61,0a7.15,7.15,0,0,1-1.62-.2L26.5,67.53a1.53,1.53,0,0,0,0,2.16l3.15,3.15a1.53,1.53,0,0,0,2.16,0L46.46,58.21l-2.71-2.93Z"/><path id="_Path_2" data-name="&lt;Path&gt;" class="cls-2" d="M73,36a1.46,1.46,0,0,0-2.07,0L63,43.9a1.91,1.91,0,0,1-2.7-2.7l7.86-7.86A1.52,1.52,0,1,0,66,31.19L58.16,39a1.91,1.91,0,0,1-2.7-2.7l7.89-7.9a1.47,1.47,0,1,0-2.07-2.07l-8.88,8.88a8.21,8.21,0,0,0-2.12,7.87l6,6A8.21,8.21,0,0,0,64.09,47L73,38.07A1.46,1.46,0,0,0,73,36Z"/><path id="_Path_3" data-name="&lt;Path&gt;" class="cls-2" d="M29.83,27.18a1.61,1.61,0,0,0-1.14-.47l-.27,0a1.61,1.61,0,0,0-1.18.89,14,14,0,0,0,2.71,16l7.56,7.56a4,4,0,0,0,2.8,1.16h.34L45,52,64.16,72.62a1.61,1.61,0,0,0,1.15.52h0a1.62,1.62,0,0,0,1.14-.47l3.28-3.28a1.61,1.61,0,0,0,0-2.28Z"/></g></g></g></svg>