<?xml version="1.0" encoding="iso-8859-1"?>
<!-- Generator: Adobe Illustrator 16.0.0, SVG Export Plug-In . SVG Version: 6.00 Build 0)  -->
<!DOCTYPE svg PUBLIC "-//W3C//DTD SVG 1.1//EN" "http://www.w3.org/Graphics/SVG/1.1/DTD/svg11.dtd">
<svg xmlns="http://www.w3.org/2000/svg" xmlns:xlink="http://www.w3.org/1999/xlink" version="1.1" id="Capa_1" x="0px" y="0px" width="512px" height="512px" viewBox="0 0 479.936 479.936" style="enable-background:new 0 0 479.936 479.936;" xml:space="preserve">
<g>
	<path d="M181.118,30.262c-20.3-15.7-47.9-17.5-73-10.1c-7.9,2.3-15.5,5.5-22.5,9.5c-33.1,18.6-70.6,55.699-80.4,93.199   c-9.5,36.4-4.2,74.801,1.5,111.801c1.7-6.5,4-12.801,6.8-18.7c18.6-39.2,59.7-57.8,90.6-85.4v-15.899c0-5.4,4.5-9.801,9.8-9.801   c5.4,0,9.8,4.5,9.8,9.801v16.699c15.6,14.301,29.6,30.9,43.6,46.7c7.6,8.601,15.1,17.4,22.6,26.101c2.9,3.399,5.9,6.8,8.7,10.399   c2.1-26.399,6.5-52.1,10.7-79.8C215.018,97.262,211.118,53.361,181.118,30.262z" fill="#FFFFFF"/>
	<path d="M60.618,345.062c-15.7-5-28.8-16.2-38.6-29.7c8.3,33.5,18.6,66.801,28.8,97.9c19.1,58.601,83.4,59.4,125.1,37.5   c39-20.5,33.1-87.9,26.7-142.3c-4.2,6.3-9.1,12.3-12,19.2c-2,5-6.5,8.399-12.1,6.899c-4.7-1.3-8.9-7.1-6.9-12.1   c7.1-17.3,22.3-30.5,23.8-50.101c1.2-15.1-0.7-29.399-9.5-42.1c-10.9-15.6-24.7-29.9-37.5-43.9c-11.6-12.699-22.8-26.1-35.2-38   c-26.8,22.2-61.3,39.2-78.9,69.9c-10.1,17.5-15.3,41.8-8.9,61.5c6.1,18.7,20.8,40.1,40.4,46.4   C77.918,329.962,72.718,348.962,60.618,345.062z" fill="#FFFFFF"/>
	<path d="M473.218,234.662c5.7-37,11-75.4,1.5-111.801c-9.8-37.5-47.4-74.6-80.5-93.199c-7-4-14.6-7.2-22.5-9.5   c-25-7.301-52.7-5.601-73,10.1c-29.899,23.2-33.8,67-28.2,104.5c4.101,27.6,8.601,53.3,10.7,79.8c2.8-3.5,5.8-7,8.7-10.399   c7.5-8.7,15-17.5,22.6-26.101c14-15.8,28-32.399,43.601-46.7v-16.699c0-5.4,4.5-9.801,9.8-9.801c5.399,0,9.8,4.5,9.8,9.801v15.8   c31,27.6,72,46.3,90.6,85.399C469.218,221.762,471.518,228.062,473.218,234.662z" fill="#FFFFFF"/>
	<path d="M301.317,334.562c-5.6,1.5-10.1-1.899-12.1-6.899c-2.8-6.9-7.7-13-12-19.2c-6.399,54.399-12.3,121.7,26.7,142.3   c41.6,21.9,105.899,21,125.1-37.5c10.2-31.1,20.5-64.4,28.8-97.9c-9.8,13.5-22.899,24.7-38.6,29.7c-12.1,3.9-17.2-15.1-5.2-19   c19.601-6.3,34.2-27.6,40.4-46.399c6.399-19.601,1.2-43.9-8.9-61.5c-17.6-30.7-52.2-47.7-78.899-69.9   c-12.4,11.9-23.601,25.3-35.2,38c-12.8,14-26.601,28.4-37.5,43.9c-8.8,12.699-10.6,26.899-9.5,42.1c1.5,19.6,16.7,32.7,23.8,50.1   C310.118,327.462,306.018,333.262,301.317,334.562z" fill="#FFFFFF"/>
</g>
<g>
</g>
<g>
</g>
<g>
</g>
<g>
</g>
<g>
</g>
<g>
</g>
<g>
</g>
<g>
</g>
<g>
</g>
<g>
</g>
<g>
</g>
<g>
</g>
<g>
</g>
<g>
</g>
<g>
</g>
</svg>
